<svg width="19" height="25" viewBox="0 0 19 25" fill="none" xmlns="http://www.w3.org/2000/svg">
<path d="M15 5V9" stroke="#999999" stroke-width="2.2" stroke-linecap="round"/>
<path d="M13 7H17" stroke="#999999" stroke-width="2.2" stroke-linecap="round"/>
<path d="M4.66667 6.99484V17.6615M4.66667 17.6615C3.19391 17.6615 2 18.8554 2 20.3282C2 21.8009 3.19391 22.9948 4.66667 22.9948C6.13943 22.9948 7.33333 21.8009 7.33333 20.3282M4.66667 17.6615C6.13943 17.6615 7.33333 18.8554 7.33333 20.3282M15 12C15 14.1217 14.4905 16.4847 12.9902 17.985C11.4899 19.4853 9.45507 20.3282 7.33333 20.3282M7.33333 4.33268C7.33333 5.80544 6.13943 6.99935 4.66667 6.99935C3.19391 6.99935 2 5.80544 2 4.33268C2 2.85992 3.19391 1.66602 4.66667 1.66602C6.13943 1.66602 7.33333 2.85992 7.33333 4.33268Z" stroke="#999999" stroke-width="2.5" stroke-linecap="round" stroke-linejoin="round"/>
</svg>
