<svg width="22" height="21" viewBox="0 0 22 21" fill="none" xmlns="http://www.w3.org/2000/svg">
<path d="M10.2898 2.48161C10.518 2.01925 10.6321 1.78808 10.787 1.71421C10.9218 1.64995 11.0784 1.64995 11.2132 1.71421C11.3681 1.78808 11.4822 2.01925 11.7104 2.48161L13.8756 6.86812C13.943 7.00462 13.9767 7.07287 14.0259 7.12586C14.0695 7.17278 14.1218 7.2108 14.1799 7.2378C14.2455 7.2683 14.3208 7.27931 14.4714 7.30132L19.3147 8.00924C19.8247 8.08379 20.0797 8.12106 20.1977 8.24563C20.3004 8.35401 20.3487 8.50294 20.3292 8.65095C20.3067 8.82107 20.1221 9.00089 19.7528 9.36053L16.2495 12.7728C16.1403 12.8791 16.0857 12.9323 16.0505 12.9956C16.0193 13.0516 15.9992 13.1132 15.9915 13.1768C15.9828 13.2488 15.9957 13.3239 16.0215 13.4741L16.8481 18.2938C16.9353 18.8021 16.9789 19.0563 16.8969 19.2071C16.8257 19.3383 16.699 19.4304 16.5521 19.4576C16.3834 19.4889 16.1551 19.3688 15.6986 19.1288L11.3688 16.8518C11.2339 16.7808 11.1664 16.7453 11.0954 16.7314C11.0324 16.7191 10.9677 16.7191 10.9048 16.7314C10.8337 16.7453 10.7663 16.7808 10.6314 16.8518L6.30154 19.1288C5.84505 19.3688 5.61681 19.4889 5.44804 19.4576C5.30121 19.4304 5.1745 19.3383 5.10322 19.2071C5.0213 19.0563 5.06489 18.8021 5.15208 18.2938L5.9787 13.4741C6.00447 13.3239 6.01735 13.2488 6.00863 13.1768C6.00092 13.1132 5.9809 13.0516 5.9497 12.9956C5.91447 12.9323 5.85987 12.8791 5.75066 12.7728L2.24734 9.36053C1.8781 9.00089 1.69348 8.82107 1.67101 8.65095C1.65147 8.50294 1.69976 8.35401 1.80244 8.24563C1.92045 8.12106 2.17546 8.08379 2.68548 8.00924L7.52877 7.30132C7.67939 7.27931 7.7547 7.2683 7.82028 7.2378C7.87836 7.2108 7.93064 7.17278 7.97423 7.12586C8.02346 7.07287 8.05715 7.00462 8.12453 6.86812L10.2898 2.48161Z" fill="#999999" stroke="#999999" stroke-width="2" stroke-linecap="round" stroke-linejoin="round"/>
</svg>
